<svg width="143" height="138" viewBox="0 0 143 138" fill="none" xmlns="http://www.w3.org/2000/svg">
<path d="M11.9404 32.6044L63 4.04638L114.06 32.6044V89.5303L63 118.088L11.9404 89.5303V32.6044Z" fill="#FAC23C" stroke="blue" stroke-width="7"/>
<path d="M18.8016 36.5488L62.5 12.0139L106.198 36.5488V85.4512L62.5 109.986L18.8016 85.4512V36.5488Z" fill="teal" stroke="white" stroke-width="7"/>
<path d="M63.1221 0.151009L63.0015 9.25954L113.092 38.0011L116.999 30.8775L63.2002 0.00851364L63.1221 0.151009Z" fill="blue"/>
<path d="M116.943 31.1701L109.474 35.1559L110.125 91.6037L117.795 91.8001L117.096 31.174L116.943 31.1701Z" fill="blue"/>
<path d="M56.1902 117.962L63.8187 122.841L116.765 91.6101L112.98 84.2729L56.1145 117.815L56.1902 117.962Z" fill="blue"/>
<path d="M9.00173 82.4984L8.47655 91.6172L63.6036 122.813L68.3033 115.864L9.09574 82.3594L9.00173 82.4984Z" fill="blue"/>
<path d="M49.1269 79.3073L82 61.0059L114.873 79.3073V115.693L82 133.994L49.1269 115.693V79.3073Z" fill="grey" stroke="#D9D9D9" stroke-width="7"/>
</svg>